<mxfile host="app.diagrams.net" agent="Mozilla/5.0 (Windows NT 10.0; Win64; x64) AppleWebKit/537.36 (KHTML, like Gecko) Chrome/136.0.0.0 Safari/537.36 Edg/136.0.0.0" version="27.1.3">
  <diagram name="第 1 页" id="5tBbyZS10oeuzcKt32nb">
    <mxGraphModel dx="2018" dy="2281" grid="1" gridSize="10" guides="1" tooltips="1" connect="1" arrows="1" fold="1" page="1" pageScale="1" pageWidth="827" pageHeight="1169" math="0" shadow="0">
      <root>
        <mxCell id="0" />
        <mxCell id="1" parent="0" />
        <mxCell id="N5TvLH0tYXLtDI16kFAI-1" value="" style="rounded=0;whiteSpace=wrap;html=1;fillColor=#d5e8d4;strokeColor=#82b366;" vertex="1" parent="1">
          <mxGeometry x="500" y="160" width="750" height="490" as="geometry" />
        </mxCell>
        <mxCell id="N5TvLH0tYXLtDI16kFAI-3" value="&lt;font style=&quot;font-size: 16px;&quot;&gt;websocket service&lt;/font&gt;" style="rounded=1;whiteSpace=wrap;html=1;fillColor=#fff2cc;strokeColor=#d6b656;" vertex="1" parent="1">
          <mxGeometry x="520" y="200" width="710" height="60" as="geometry" />
        </mxCell>
        <mxCell id="N5TvLH0tYXLtDI16kFAI-7" value="" style="rounded=0;whiteSpace=wrap;html=1;fillColor=#f8cecc;strokeColor=#b85450;" vertex="1" parent="1">
          <mxGeometry x="500" y="-70" width="210" height="190" as="geometry" />
        </mxCell>
        <mxCell id="N5TvLH0tYXLtDI16kFAI-11" style="edgeStyle=orthogonalEdgeStyle;rounded=0;orthogonalLoop=1;jettySize=auto;html=1;exitX=0.5;exitY=1;exitDx=0;exitDy=0;entryX=0.5;entryY=0;entryDx=0;entryDy=0;" edge="1" parent="1" source="N5TvLH0tYXLtDI16kFAI-8" target="N5TvLH0tYXLtDI16kFAI-9">
          <mxGeometry relative="1" as="geometry" />
        </mxCell>
        <mxCell id="N5TvLH0tYXLtDI16kFAI-8" value="埋点点测" style="rounded=1;whiteSpace=wrap;html=1;" vertex="1" parent="1">
          <mxGeometry x="545" y="-40" width="120" height="60" as="geometry" />
        </mxCell>
        <mxCell id="N5TvLH0tYXLtDI16kFAI-9" value="埋点SDK" style="rounded=1;whiteSpace=wrap;html=1;" vertex="1" parent="1">
          <mxGeometry x="545" y="40" width="120" height="60" as="geometry" />
        </mxCell>
        <mxCell id="N5TvLH0tYXLtDI16kFAI-10" value="车机" style="text;html=1;align=center;verticalAlign=middle;whiteSpace=wrap;rounded=0;" vertex="1" parent="1">
          <mxGeometry x="500" y="-70" width="60" height="30" as="geometry" />
        </mxCell>
        <mxCell id="N5TvLH0tYXLtDI16kFAI-13" value="" style="rounded=0;whiteSpace=wrap;html=1;fillColor=#f8cecc;strokeColor=#b85450;" vertex="1" parent="1">
          <mxGeometry x="770" y="-70" width="210" height="190" as="geometry" />
        </mxCell>
        <mxCell id="N5TvLH0tYXLtDI16kFAI-14" style="edgeStyle=orthogonalEdgeStyle;rounded=0;orthogonalLoop=1;jettySize=auto;html=1;exitX=0.5;exitY=1;exitDx=0;exitDy=0;entryX=0.5;entryY=0;entryDx=0;entryDy=0;" edge="1" parent="1" source="N5TvLH0tYXLtDI16kFAI-15" target="N5TvLH0tYXLtDI16kFAI-16">
          <mxGeometry relative="1" as="geometry" />
        </mxCell>
        <mxCell id="N5TvLH0tYXLtDI16kFAI-15" value="埋点点测" style="rounded=1;whiteSpace=wrap;html=1;" vertex="1" parent="1">
          <mxGeometry x="815" y="-40" width="120" height="60" as="geometry" />
        </mxCell>
        <mxCell id="N5TvLH0tYXLtDI16kFAI-27" style="edgeStyle=orthogonalEdgeStyle;rounded=0;orthogonalLoop=1;jettySize=auto;html=1;entryX=0.5;entryY=0;entryDx=0;entryDy=0;" edge="1" parent="1" source="N5TvLH0tYXLtDI16kFAI-16" target="N5TvLH0tYXLtDI16kFAI-3">
          <mxGeometry relative="1" as="geometry" />
        </mxCell>
        <mxCell id="N5TvLH0tYXLtDI16kFAI-16" value="埋点SDK" style="rounded=1;whiteSpace=wrap;html=1;" vertex="1" parent="1">
          <mxGeometry x="815" y="40" width="120" height="60" as="geometry" />
        </mxCell>
        <mxCell id="N5TvLH0tYXLtDI16kFAI-17" value="车机" style="text;html=1;align=center;verticalAlign=middle;whiteSpace=wrap;rounded=0;" vertex="1" parent="1">
          <mxGeometry x="770" y="-70" width="60" height="30" as="geometry" />
        </mxCell>
        <mxCell id="N5TvLH0tYXLtDI16kFAI-19" value="" style="rounded=0;whiteSpace=wrap;html=1;fillColor=#f8cecc;strokeColor=#b85450;" vertex="1" parent="1">
          <mxGeometry x="1040" y="-70" width="210" height="190" as="geometry" />
        </mxCell>
        <mxCell id="N5TvLH0tYXLtDI16kFAI-20" style="edgeStyle=orthogonalEdgeStyle;rounded=0;orthogonalLoop=1;jettySize=auto;html=1;exitX=0.5;exitY=1;exitDx=0;exitDy=0;entryX=0.5;entryY=0;entryDx=0;entryDy=0;" edge="1" parent="1" source="N5TvLH0tYXLtDI16kFAI-21" target="N5TvLH0tYXLtDI16kFAI-22">
          <mxGeometry relative="1" as="geometry" />
        </mxCell>
        <mxCell id="N5TvLH0tYXLtDI16kFAI-21" value="埋点点测" style="rounded=1;whiteSpace=wrap;html=1;" vertex="1" parent="1">
          <mxGeometry x="1085" y="-40" width="120" height="60" as="geometry" />
        </mxCell>
        <mxCell id="N5TvLH0tYXLtDI16kFAI-22" value="埋点SDK" style="rounded=1;whiteSpace=wrap;html=1;" vertex="1" parent="1">
          <mxGeometry x="1085" y="40" width="120" height="60" as="geometry" />
        </mxCell>
        <mxCell id="N5TvLH0tYXLtDI16kFAI-23" value="车机" style="text;html=1;align=center;verticalAlign=middle;whiteSpace=wrap;rounded=0;" vertex="1" parent="1">
          <mxGeometry x="1040" y="-70" width="60" height="30" as="geometry" />
        </mxCell>
        <mxCell id="N5TvLH0tYXLtDI16kFAI-26" style="edgeStyle=orthogonalEdgeStyle;rounded=0;orthogonalLoop=1;jettySize=auto;html=1;exitX=0.5;exitY=1;exitDx=0;exitDy=0;" edge="1" parent="1" source="N5TvLH0tYXLtDI16kFAI-9">
          <mxGeometry relative="1" as="geometry">
            <mxPoint x="605" y="200" as="targetPoint" />
          </mxGeometry>
        </mxCell>
        <mxCell id="N5TvLH0tYXLtDI16kFAI-28" style="edgeStyle=orthogonalEdgeStyle;rounded=0;orthogonalLoop=1;jettySize=auto;html=1;entryX=0.879;entryY=0.033;entryDx=0;entryDy=0;entryPerimeter=0;" edge="1" parent="1" source="N5TvLH0tYXLtDI16kFAI-22" target="N5TvLH0tYXLtDI16kFAI-3">
          <mxGeometry relative="1" as="geometry" />
        </mxCell>
        <mxCell id="N5TvLH0tYXLtDI16kFAI-29" value="" style="shape=flexArrow;endArrow=classic;html=1;rounded=0;" edge="1" parent="1">
          <mxGeometry width="50" height="50" relative="1" as="geometry">
            <mxPoint x="640" y="270" as="sourcePoint" />
            <mxPoint x="640" y="310" as="targetPoint" />
          </mxGeometry>
        </mxCell>
        <mxCell id="N5TvLH0tYXLtDI16kFAI-30" value="" style="shape=flexArrow;endArrow=classic;html=1;rounded=0;" edge="1" parent="1">
          <mxGeometry width="50" height="50" relative="1" as="geometry">
            <mxPoint x="799.5" y="270" as="sourcePoint" />
            <mxPoint x="799.5" y="310" as="targetPoint" />
          </mxGeometry>
        </mxCell>
        <mxCell id="N5TvLH0tYXLtDI16kFAI-31" value="" style="shape=flexArrow;endArrow=classic;html=1;rounded=0;" edge="1" parent="1">
          <mxGeometry width="50" height="50" relative="1" as="geometry">
            <mxPoint x="960" y="270" as="sourcePoint" />
            <mxPoint x="960" y="310" as="targetPoint" />
          </mxGeometry>
        </mxCell>
        <mxCell id="N5TvLH0tYXLtDI16kFAI-32" value="" style="shape=flexArrow;endArrow=classic;html=1;rounded=0;" edge="1" parent="1">
          <mxGeometry width="50" height="50" relative="1" as="geometry">
            <mxPoint x="1120" y="270" as="sourcePoint" />
            <mxPoint x="1120" y="310" as="targetPoint" />
          </mxGeometry>
        </mxCell>
        <mxCell id="N5TvLH0tYXLtDI16kFAI-33" value="&lt;font style=&quot;font-size: 16px;&quot;&gt;KAFKA&lt;/font&gt;" style="rounded=1;whiteSpace=wrap;html=1;fillColor=#dae8fc;strokeColor=#6c8ebf;" vertex="1" parent="1">
          <mxGeometry x="520" y="320" width="710" height="60" as="geometry" />
        </mxCell>
        <mxCell id="N5TvLH0tYXLtDI16kFAI-34" value="" style="shape=flexArrow;endArrow=classic;html=1;rounded=0;" edge="1" parent="1">
          <mxGeometry width="50" height="50" relative="1" as="geometry">
            <mxPoint x="640" y="390" as="sourcePoint" />
            <mxPoint x="640" y="430" as="targetPoint" />
          </mxGeometry>
        </mxCell>
        <mxCell id="N5TvLH0tYXLtDI16kFAI-35" value="" style="shape=flexArrow;endArrow=classic;html=1;rounded=0;" edge="1" parent="1">
          <mxGeometry width="50" height="50" relative="1" as="geometry">
            <mxPoint x="799.5" y="390" as="sourcePoint" />
            <mxPoint x="799.5" y="430" as="targetPoint" />
          </mxGeometry>
        </mxCell>
        <mxCell id="N5TvLH0tYXLtDI16kFAI-36" value="" style="shape=flexArrow;endArrow=classic;html=1;rounded=0;" edge="1" parent="1">
          <mxGeometry width="50" height="50" relative="1" as="geometry">
            <mxPoint x="960" y="390" as="sourcePoint" />
            <mxPoint x="960" y="430" as="targetPoint" />
          </mxGeometry>
        </mxCell>
        <mxCell id="N5TvLH0tYXLtDI16kFAI-37" value="" style="shape=flexArrow;endArrow=classic;html=1;rounded=0;" edge="1" parent="1">
          <mxGeometry width="50" height="50" relative="1" as="geometry">
            <mxPoint x="1120" y="390" as="sourcePoint" />
            <mxPoint x="1120" y="430" as="targetPoint" />
          </mxGeometry>
        </mxCell>
        <mxCell id="N5TvLH0tYXLtDI16kFAI-38" value="&lt;font style=&quot;font-size: 16px;&quot;&gt;FLINK&lt;/font&gt;" style="rounded=1;whiteSpace=wrap;html=1;fillColor=#e1d5e7;strokeColor=#9673a6;" vertex="1" parent="1">
          <mxGeometry x="520" y="440" width="710" height="60" as="geometry" />
        </mxCell>
        <mxCell id="N5TvLH0tYXLtDI16kFAI-39" value="&lt;span style=&quot;font-size: 16px;&quot;&gt;MongoDB&lt;/span&gt;" style="rounded=1;whiteSpace=wrap;html=1;fillColor=#f5f5f5;fontColor=#333333;strokeColor=#666666;" vertex="1" parent="1">
          <mxGeometry x="520" y="560" width="710" height="60" as="geometry" />
        </mxCell>
        <mxCell id="N5TvLH0tYXLtDI16kFAI-40" value="" style="shape=flexArrow;endArrow=classic;html=1;rounded=0;" edge="1" parent="1">
          <mxGeometry width="50" height="50" relative="1" as="geometry">
            <mxPoint x="640" y="510" as="sourcePoint" />
            <mxPoint x="640" y="550" as="targetPoint" />
          </mxGeometry>
        </mxCell>
        <mxCell id="N5TvLH0tYXLtDI16kFAI-41" value="" style="shape=flexArrow;endArrow=classic;html=1;rounded=0;" edge="1" parent="1">
          <mxGeometry width="50" height="50" relative="1" as="geometry">
            <mxPoint x="799.5" y="510" as="sourcePoint" />
            <mxPoint x="799.5" y="550" as="targetPoint" />
          </mxGeometry>
        </mxCell>
        <mxCell id="N5TvLH0tYXLtDI16kFAI-43" value="" style="shape=flexArrow;endArrow=classic;html=1;rounded=0;" edge="1" parent="1">
          <mxGeometry width="50" height="50" relative="1" as="geometry">
            <mxPoint x="960" y="510" as="sourcePoint" />
            <mxPoint x="960" y="550" as="targetPoint" />
          </mxGeometry>
        </mxCell>
        <mxCell id="N5TvLH0tYXLtDI16kFAI-44" value="" style="shape=flexArrow;endArrow=classic;html=1;rounded=0;" edge="1" parent="1">
          <mxGeometry width="50" height="50" relative="1" as="geometry">
            <mxPoint x="1120" y="510" as="sourcePoint" />
            <mxPoint x="1120" y="550" as="targetPoint" />
          </mxGeometry>
        </mxCell>
        <mxCell id="N5TvLH0tYXLtDI16kFAI-45" value="" style="shape=curlyBracket;whiteSpace=wrap;html=1;rounded=1;labelPosition=left;verticalLabelPosition=middle;align=right;verticalAlign=middle;" vertex="1" parent="1">
          <mxGeometry x="430" y="130" width="20" height="530" as="geometry" />
        </mxCell>
        <mxCell id="N5TvLH0tYXLtDI16kFAI-46" value="数据采集中心" style="text;html=1;align=center;verticalAlign=middle;whiteSpace=wrap;rounded=0;fontSize=18;fontStyle=1" vertex="1" parent="1">
          <mxGeometry x="304" y="375" width="110" height="40" as="geometry" />
        </mxCell>
        <mxCell id="N5TvLH0tYXLtDI16kFAI-47" value="" style="shape=curlyBracket;whiteSpace=wrap;html=1;rounded=1;labelPosition=left;verticalLabelPosition=middle;align=right;verticalAlign=middle;" vertex="1" parent="1">
          <mxGeometry x="430" y="-70" width="20" height="180" as="geometry" />
        </mxCell>
        <mxCell id="N5TvLH0tYXLtDI16kFAI-48" value="车端" style="text;html=1;align=center;verticalAlign=middle;whiteSpace=wrap;rounded=0;fontSize=18;fontStyle=1" vertex="1" parent="1">
          <mxGeometry x="329" y="5" width="60" height="30" as="geometry" />
        </mxCell>
      </root>
    </mxGraphModel>
  </diagram>
</mxfile>
